<svg id="undraw_browser_stats_704t_1_" data-name="undraw_browser_stats_704t (1)" xmlns="http://www.w3.org/2000/svg" xmlns:xlink="http://www.w3.org/1999/xlink" viewBox="0 0 827.826 693.411">
  <defs>
    <style>
      .cls-1 {
        fill: url(#linear-gradient);
      }

      .cls-11, .cls-12, .cls-13, .cls-2, .cls-22, .cls-9 {
        fill: #e6e6fa;
      }

      .cls-2 {
        opacity: 0.7;
      }

      .cls-3 {
        fill: #f5f5f5;
      }

      .cls-26, .cls-4 {
        fill: #fff;
      }

      .cls-5 {
        fill: #ff5252;
      }

      .cls-6 {
        fill: #ff0;
      }

      .cls-7 {
        fill: #69f0ae;
      }

      .cls-8 {
        fill: url(#linear-gradient-2);
      }

      .cls-10, .cls-11, .cls-21, .cls-26 {
        opacity: 0.2;
      }

      .cls-12 {
        opacity: 0.5;
      }

      .cls-13 {
        opacity: 0.8;
      }

      .cls-14 {
        fill: #64ffda;
      }

      .cls-15 {
        fill: url(#linear-gradient-3);
      }

      .cls-16 {
        fill: url(#linear-gradient-4);
      }

      .cls-17 {
        fill: url(#linear-gradient-5);
      }

      .cls-18, .cls-19, .cls-20, .cls-25 {
        fill: none;
        stroke: #fff;
        stroke-linecap: round;
        stroke-linejoin: round;
      }

      .cls-19 {
        stroke-dasharray: 0 4.07;
      }

      .cls-20 {
        opacity: 0.3;
      }

      .cls-21, .cls-24 {
        fill: #3f3d56;
      }

      .cls-22 {
        opacity: 0.1;
      }

      .cls-23 {
        fill: url(#linear-gradient-6);
      }

      .cls-25 {
        stroke-dasharray: 0 4.04;
      }
    </style>
    <linearGradient id="linear-gradient" x1="0.65" y1="0.991" x2="0.65" y2="0.279" gradientUnits="objectBoundingBox">
      <stop offset="0" stop-color="gray" stop-opacity="0.251"/>
      <stop offset="0.54" stop-color="gray" stop-opacity="0.122"/>
      <stop offset="1" stop-color="gray" stop-opacity="0.102"/>
    </linearGradient>
    <linearGradient id="linear-gradient-2" x1="0.525" y1="-3.598" x2="0.525" y2="-4.603" xlink:href="#linear-gradient"/>
    <linearGradient id="linear-gradient-3" x1="-0.672" y1="-1.135" x2="-0.672" y2="-2.136" xlink:href="#linear-gradient"/>
    <linearGradient id="linear-gradient-4" x1="-1.222" y1="-1.048" x2="-1.222" y2="-2.049" xlink:href="#linear-gradient"/>
    <linearGradient id="linear-gradient-5" x1="0.5" y1="1" x2="0.5" y2="0" xlink:href="#linear-gradient"/>
    <linearGradient id="linear-gradient-6" x1="0.5" y1="1" x2="0.5" gradientUnits="objectBoundingBox">
      <stop offset="0" stop-color="#3f3d56"/>
      <stop offset="0.54" stop-color="gray" stop-opacity="0.122"/>
      <stop offset="1" stop-color="gray" stop-opacity="0.102"/>
    </linearGradient>
  </defs>
  <path id="Path_297" data-name="Path 297" class="cls-1" d="M38.44,236.713l7.908,26.55,122.171,410.3L753.346,465.078,631.175,54.779l-7.9-26.549Z" transform="translate(0 0)"/>
  <path id="Path_298" data-name="Path 298" class="cls-2" d="M19.59,279.745l7.453,25.141L142.337,693.411,705.925,491.816,590.631,103.281,583.179,78.15Z"/>
  <rect id="Rectangle_68" data-name="Rectangle 68" class="cls-3" width="656.27" height="26.69" transform="translate(51.48 242.277) rotate(-18.072)"/>
  <path id="Path_310" data-name="Path 310" class="cls-4" d="M3.393,5.774l597.97-16.782L590.811,393.95-7.158,410.732Z" transform="translate(54.622 260.952) rotate(-18.02)"/>
  <path id="Path_299" data-name="Path 299" class="cls-5" d="M226.79,347.88a7.62,7.62,0,1,1-9.61-4.89A7.62,7.62,0,0,1,226.79,347.88Z" transform="translate(-149.37 -102.407)"/>
  <path id="Path_300" data-name="Path 300" class="cls-6" d="M247.07,341.26a7.62,7.62,0,1,1-9.61-4.89A7.62,7.62,0,0,1,247.07,341.26Z" transform="translate(-149.37 -102.348)"/>
  <path id="Path_301" data-name="Path 301" class="cls-7" d="M267.36,334.63a7.62,7.62,0,1,1-9.61-4.89A7.62,7.62,0,0,1,267.36,334.63Z" transform="translate(-149.37 -102.289)"/>
  <rect id="Rectangle_70" data-name="Rectangle 70" class="cls-8" width="210.37" height="18.3" transform="matrix(0.951, -0.31, 0.31, 0.951, 85.704, 297.97)"/>
  <rect id="Rectangle_71" data-name="Rectangle 71" class="cls-9" width="208.85" height="15.25" transform="matrix(0.951, -0.31, 0.31, 0.951, 86.666, 298.459)"/>
  <rect id="Rectangle_72" data-name="Rectangle 72" class="cls-9" width="208.85" height="15.25" transform="matrix(0.951, -0.31, 0.31, 0.951, 431.572, 170.634)"/>
  <rect id="Rectangle_73" data-name="Rectangle 73" class="cls-10" width="208.85" height="15.25" transform="matrix(0.951, -0.31, 0.31, 0.951, 431.572, 170.634)"/>
  <rect id="Rectangle_74" data-name="Rectangle 74" class="cls-11" width="9.15" height="9.15" transform="matrix(0.951, -0.31, 0.31, 0.951, 118.28, 394.468)"/>
  <rect id="Rectangle_75" data-name="Rectangle 75" class="cls-12" width="9.15" height="9.15" transform="matrix(0.951, -0.31, 0.31, 0.951, 649.683, 203.721)"/>
  <path id="Path_302" data-name="Path 302" class="cls-11" d="M325.6,484.1a16.77,16.77,0,1,1-21.13-10.75A16.77,16.77,0,0,1,325.6,484.1Z" transform="translate(-154.185 -103.654)"/>
  <path id="Path_303" data-name="Path 303" class="cls-12" d="M844.42,314.8A16.77,16.77,0,1,1,823.29,304a16.77,16.77,0,0,1,21.13,10.8Z" transform="translate(-205.422 -102.105)"/>
  <rect id="Rectangle_76" data-name="Rectangle 76" class="cls-12" width="94.51" height="9.15" transform="matrix(0.951, -0.31, 0.31, 0.951, 170.785, 372.082)"/>
  <rect id="Rectangle_77" data-name="Rectangle 77" class="cls-13" width="94.51" height="9.15" transform="matrix(0.951, -0.31, 0.31, 0.951, 194.375, 451.133)"/>
  <rect id="Rectangle_78" data-name="Rectangle 78" class="cls-2" width="94.51" height="9.15" transform="matrix(0.951, -0.31, 0.31, 0.951, 306.372, 411.305)"/>
  <rect id="Rectangle_79" data-name="Rectangle 79" class="cls-12" width="94.51" height="9.15" transform="matrix(0.951, -0.31, 0.31, 0.951, 418.373, 371.489)"/>
  <rect id="Rectangle_80" data-name="Rectangle 80" class="cls-11" width="94.51" height="9.15" transform="matrix(0.951, -0.31, 0.31, 0.951, 530.38, 331.661)"/>
  <rect id="Rectangle_81" data-name="Rectangle 81" class="cls-13" width="94.51" height="9.15" transform="matrix(0.951, -0.31, 0.31, 0.951, 217.965, 530.185)"/>
  <rect id="Rectangle_82" data-name="Rectangle 82" class="cls-2" width="94.51" height="9.15" transform="matrix(0.951, -0.31, 0.31, 0.951, 329.962, 490.357)"/>
  <rect id="Rectangle_83" data-name="Rectangle 83" class="cls-12" width="94.51" height="9.15" transform="matrix(0.951, -0.31, 0.31, 0.951, 441.963, 450.541)"/>
  <rect id="Rectangle_84" data-name="Rectangle 84" class="cls-11" width="94.51" height="9.15" transform="matrix(0.951, -0.31, 0.31, 0.951, 553.969, 410.712)"/>
  <rect id="Rectangle_85" data-name="Rectangle 85" class="cls-11" width="94.51" height="9.15" transform="matrix(0.951, -0.31, 0.31, 0.951, 282.783, 332.253)"/>
  <rect id="Rectangle_86" data-name="Rectangle 86" class="cls-14" width="94.51" height="9.15" transform="matrix(0.951, -0.31, 0.31, 0.951, 394.783, 292.437)"/>
  <rect id="Rectangle_87" data-name="Rectangle 87" class="cls-11" width="94.51" height="9.15" transform="matrix(0.951, -0.31, 0.31, 0.951, 506.781, 252.622)"/>
  <rect id="Rectangle_88" data-name="Rectangle 88" class="cls-15" width="47.26" height="47.29" transform="matrix(0.951, -0.31, 0.31, 0.951, 124.254, 456.085)"/>
  <rect id="Rectangle_89" data-name="Rectangle 89" class="cls-16" width="47.26" height="47.29" transform="matrix(0.951, -0.31, 0.31, 0.951, 147.937, 535.112)"/>
  <rect id="Rectangle_90" data-name="Rectangle 90" class="cls-9" width="42.68" height="42.71" transform="matrix(0.951, -0.31, 0.31, 0.951, 126.973, 457.563)"/>
  <rect id="Rectangle_91" data-name="Rectangle 91" class="cls-9" width="42.68" height="42.71" transform="matrix(0.951, -0.31, 0.31, 0.951, 150.67, 536.596)"/>
  <path id="Path_304" data-name="Path 304" class="cls-17" d="M409.59,100.25,149.37,185.17l39.87,122.57,37.07-12.1c.14,5.4-.11,22.34-8.67,26.55,0,0,18.15.59,29.4-33.32l202.41-66.05Z" transform="translate(-149.37 -100.25)"/>
  <path id="Path_305" data-name="Path 305" class="cls-9" d="M403.91,106.36l-246.37,80.4,37.75,116,35.1-11.45c.14,5.12-.11,21.15-8.21,25.14,0,0,17.18.55,27.84-31.55l191.64-62.5Z" transform="translate(-149.37 -100.25)"/>
  <line id="Line_2" data-name="Line 2" class="cls-18" transform="translate(32.71 92.94)"/>
  <line id="Line_3" data-name="Line 3" class="cls-19" x2="24.54" y2="75.43" transform="translate(33.97 96.8)"/>
  <line id="Line_4" data-name="Line 4" class="cls-18" transform="translate(59.14 172.654)"/>
  <line id="Line_5" data-name="Line 5" class="cls-18" y1="66.68" x2="204.34" transform="translate(61.01 114.587)"/>
  <line id="Line_6" data-name="Line 6" class="cls-20" y1="56.28" x2="172.46" transform="translate(65.52 100.56)"/>
  <line id="Line_7" data-name="Line 7" class="cls-20" y1="56.27" x2="172.45" transform="translate(58.45 78.81)"/>
  <line id="Line_8" data-name="Line 8" class="cls-20" y1="56.27" x2="172.45" transform="translate(51.37 57.05)"/>
  <line id="Line_9" data-name="Line 9" class="cls-20" y1="56.28" x2="172.46" transform="translate(44.29 35.29)"/>
  <path id="Path_306" data-name="Path 306" class="cls-21" d="M250.16,247.91a3.581,3.581,0,0,1-.07-1,6.15,6.15,0,0,1,5.18-5.6l.74-.15c4.84-1.21,9.81-3,13.07-6.77,5.12-6,4.53-15.11,3.65-22.49a12.85,12.85,0,0,1,.93-6.85c3.17-7,10.15-5.18,16.1-5.48a22.88,22.88,0,0,0,20.73-18.3c.74-4.2.27-8.53.87-12.75a25.23,25.23,0,0,1,8.11-15.09c4.5-4,10.33-6.28,15.93-8.23a39.6,39.6,0,0,1,13.91-2.29h.25a20.34,20.34,0,0,1,18.23,13.12c1.24,3.21,2.3,6.49,3.41,9.89,6.13,18.86,11.8,36.26,18.88,58.1-8.7,2.76-29.1,9.41-31.89,10.32l-30.43,9.93c-20.29,6.62-39.69,13.58-62.32,20.34-4.67,1.39,0,0-10.14,3.31C253.5,262.44,253.41,262.18,250.16,247.91Z" transform="translate(-149.37 -100.25)"/>
  <rect id="Rectangle_92" data-name="Rectangle 92" class="cls-22" width="259.15" height="6.1" transform="translate(71.186 278.713) rotate(-18.072)"/>
  <path id="Path_307" data-name="Path 307" class="cls-23" d="M1050.63,467.2,997.56,304l-76.72,25,7.56,23.25c-3.38.09-14-.07-16.62-5.43,0,0-.37,11.38,20.85,18.43l41.29,126.92Z" transform="translate(-222.804 -102.676)"/>
  <path id="Path_308" data-name="Path 308" class="cls-24" d="M1045.54,462.45,996.23,310.86,925,334.12l7,21.6c-3.14.08-13-.06-15.44-5,0,0-.34,10.57,19.37,17.12l38.36,117.92Z" transform="translate(-222.804 -102.694)"/>
  <line id="Line_10" data-name="Line 10" class="cls-18" transform="translate(769.476 223.745)"/>
  <line id="Line_11" data-name="Line 11" class="cls-25" x1="44.13" y2="14.41" transform="translate(721.506 224.943)"/>
  <line id="Line_12" data-name="Line 12" class="cls-18" transform="translate(719.586 239.884)"/>
  <line id="Line_13" data-name="Line 13" class="cls-18" x2="40.9" y2="125.74" transform="translate(714.536 240.56)"/>
  <line id="Line_14" data-name="Line 14" class="cls-20" x2="34.52" y2="106.11" transform="translate(730.226 243.397)"/>
  <line id="Line_15" data-name="Line 15" class="cls-20" x2="34.52" y2="106.11" transform="translate(743.586 239.081)"/>
  <line id="Line_16" data-name="Line 16" class="cls-20" x2="34.51" y2="106.11" transform="translate(756.956 234.766)"/>
  <line id="Line_17" data-name="Line 17" class="cls-20" x2="34.52" y2="106.11" transform="translate(770.316 230.451)"/>
  <path id="Path_309" data-name="Path 309" class="cls-26" d="M958.65,367.88a2.19,2.19,0,0,1,.59,0,3.78,3.78,0,0,1,3.44,3.19,1.544,1.544,0,0,0,.09.45c.74,3,1.83,6,4.15,8,3.66,3.15,9.28,2.79,13.81,2.24a7.87,7.87,0,0,1,4.21.57c4.28,2,3.18,6.25,3.36,9.9A14.05,14.05,0,0,0,999.53,405c2.58.46,5.24.16,7.83.54a15.47,15.47,0,0,1,9.27,5c2.46,2.77,3.86,6.35,5.05,9.8a24.4,24.4,0,0,1,1.4,8.56v.1a12.53,12.53,0,0,1-8.06,11.22c-2,.76-4,1.42-6.08,2.1L973.26,454c-1.69-5.36-5.77-17.91-6.33-19.62-2.13-6.54-4-12.18-6.09-18.73-4.06-12.48-8.33-24.42-12.47-38.34-.85-2.87,0,0-2-6.24C949.73,369.93,949.89,369.88,958.65,367.88Z" transform="translate(-222.804 -102.907)"/>
  <rect id="Rectangle_93" data-name="Rectangle 93" class="cls-22" width="7.62" height="158.64" transform="matrix(0.951, -0.31, 0.31, 0.951, 643.206, 251.97)"/>
</svg>
