<svg xmlns="http://www.w3.org/2000/svg" viewBox="0 0 921.984 739.811">
  <defs>
    <style>
      .cls-1 {
        fill: #f2f2f2;
      }

      .cls-2 {
        fill: #e6e6fa;
      }

      .cls-3 {
        fill: #3f3d56;
      }

      .cls-4 {
        opacity: 0.1;
      }

      .cls-5 {
        fill: #2f2e41;
      }

      .cls-6 {
        fill: #a0616a;
      }

      .cls-7 {
        fill: #d0cde1;
      }
    </style>
  </defs>
  <g id="undraw_notify_88a4" transform="translate(0 -0.035)">
    <ellipse id="Ellipse_53" data-name="Ellipse 53" class="cls-1" cx="342" cy="314.468" rx="342" ry="314.468" transform="translate(113 101.91)"/>
    <path id="Path_235" data-name="Path 235" class="cls-2" d="M961.713,244.625l-35.68,42.3c-1.925,18.22-4.655,38.58-8.525,59.939l58.621-60.646.274,1.059c-3.336-16.3-8.382-31.083-15.017-43.658Z" transform="translate(-199.981 -67.755)"/>
    <path id="Path_236" data-name="Path 236" class="cls-2" d="M926.365,283.731l34.562-40.977c-7.544-14.024-17.1-25.226-28.512-32.577-.594-.382-1.192-.743-1.79-1.1C930.633,214.057,930.487,243.294,926.365,283.731Z" transform="translate(-198.028 -64.51)"/>
    <path id="Path_237" data-name="Path 237" class="cls-2" d="M970.638,414.872l.074,1.227q3-11.279,5.128-22.587L890.829,448.4l-.056-.559q-2.412,6.568-4.958,12.891Z" transform="translate(-198.928 -78.344)"/>
    <path id="Path_238" data-name="Path 238" class="cls-2" d="M980.768,348.18l.172,1.163a258.751,258.751,0,0,0-4.314-60.926l-59.738,61.8q-5.578,30-13.134,57.112Z" transform="translate(-200.284 -71.756)"/>
    <path id="Path_239" data-name="Path 239" class="cls-2" d="M830.043,244.779a216.054,216.054,0,0,0-22.808,37.095l98.459,112.393c4.054-15.764,7.322-31.051,9.953-45.307L829.525,245.892Z" transform="translate(-187.233 -68.943)"/>
    <path id="Path_240" data-name="Path 240" class="cls-2" d="M800.279,297.306l.5-1.127L901.889,408.359q1.632-5.762,3.123-11.461L806.19,284.09l.508-1.123Q803.344,289.89,800.279,297.306Z" transform="translate(-185.44 -71.494)"/>
    <path id="Path_241" data-name="Path 241" class="cls-2" d="M975.991,390.862l.12,1.2a309,309,0,0,0,4.771-41.378l-78.055,59.951q-5.141,18.048-11.139,34.658Z" transform="translate(-199.867 -75.986)"/>
    <path id="Path_242" data-name="Path 242" class="cls-2" d="M863.322,507.468c-13.228,23.023-28.217,42.486-44.818,58.159,18.362-7.406,92.339-40.033,130.678-98.873Z" transform="translate(-192.561 -85.312)"/>
    <path id="Path_243" data-name="Path 243" class="cls-2" d="M784.9,354.407a298.93,298.93,0,0,0-1.721,39.978l.616-1.2,79.3,111.242a371.625,371.625,0,0,0,19.46-40.062Z" transform="translate(-181.572 -78.318)"/>
    <path id="Path_244" data-name="Path 244" class="cls-2" d="M924.9,283.606c4.449-43.751,4.211-74.237,4.206-74.675l.756-.307c-17.853-10.349-37.581-9.989-56.8-.791Z" transform="translate(-191.881 -64.013)"/>
    <path id="Path_245" data-name="Path 245" class="cls-2" d="M884.482,463.987c-.536,1.3-1.068,2.614-1.613,3.9a369.245,369.245,0,0,1-17.585,36.124l85.045-40.328.043,1.205A146.379,146.379,0,0,0,966.2,431.5q2.234-6.937,4.121-13.924Z" transform="translate(-197.431 -80.915)"/>
    <path id="Path_246" data-name="Path 246" class="cls-2" d="M916.165,346.114c3.811-21.119,6.5-41.24,8.4-59.248l-53.024-77.511.559-1.058c-14.439,7.141-28.563,19.272-41.358,35.59Z" transform="translate(-189.486 -65.595)"/>
    <path id="Path_247" data-name="Path 247" class="cls-2" d="M861.927,506.482,783.208,396.053c1.9,80.047,29.228,165.476,30.991,170.909C833.1,550.033,848.836,529.22,861.927,506.482Z" transform="translate(-178.876 -82.856)"/>
    <path id="Path_248" data-name="Path 248" class="cls-2" d="M883.466,462l.081-.044a501.521,501.521,0,0,0,17.608-51.035L799.8,298.466q-4.108,10.064-7.632,20.969a179.716,179.716,0,0,0-6.912,31.978Z" transform="translate(-184.209 -73.991)"/>
    <path id="Path_249" data-name="Path 249" class="cls-2" d="M1041.922,573.271,987.461,583.1c-13.1,12.805-28.193,26.745-44.8,40.727l83.83-9.32-.464.991c7.826-14.68,13.37-29.286,16.28-43.2Z" transform="translate(-231.016 -91.043)"/>
    <path id="Path_250" data-name="Path 250" class="cls-2" d="M989.756,580.845l52.755-9.516c3.135-15.612,2.922-30.333-1.182-43.276-.214-.673-.444-1.333-.676-1.99C1037.482,529.9,1018.722,552.33,989.756,580.845Z" transform="translate(-231.016 -87.773)"/>
    <path id="Path_251" data-name="Path 251" class="cls-2" d="M940.21,710.087l-.726.992q9.5-6.774,18.356-14.125L857.358,685.007l.314-.467q-6.047,3.52-12.041,6.766Z" transform="translate(-194.879 -97.835)"/>
    <path id="Path_252" data-name="Path 252" class="cls-2" d="M990.549,665.182l-.609,1.006a258.754,258.754,0,0,0,35.537-49.676l-85.427,9.5q-23.433,19.551-46.543,35.61Z" transform="translate(-231.016 -94.215)"/>
    <path id="Path_253" data-name="Path 253" class="cls-2" d="M940.414,489.409a216.055,216.055,0,0,0-41.226,14.022l4.146,149.363c13.177-9.556,25.444-19.245,36.563-28.547L939.3,489.936Z" transform="translate(-194.276 -90.635)"/>
    <path id="Path_254" data-name="Path 254" class="cls-2" d="M883.987,510.88l1.1-.549,6.323,150.889q4.932-3.4,9.716-6.835l-4.161-149.914,1.107-.541Q891.078,507.124,883.987,510.88Z" transform="translate(-188.45 -91.525)"/>
    <path id="Path_255" data-name="Path 255" class="cls-2" d="M959.647,695.008l-.673,1a309,309,0,0,0,30.067-28.826l-98.354-3.611Q875.215,674.193,860,683.161Z" transform="translate(-231.016 -96.671)"/>
    <path id="Path_256" data-name="Path 256" class="cls-2" d="M798.5,712.955c-24.872,9.295-48.831,14.725-71.613,16.208,18.866,6.008,96.652,28.062,163.709,7.2Z" transform="translate(-179.771 -107.609)"/>
    <path id="Path_257" data-name="Path 257" class="cls-2" d="M835.721,545.049A298.92,298.92,0,0,0,808.9,574.742l1.238-.529-9.877,136.256a371.637,371.637,0,0,0,40.54-18.444Z" transform="translate(-177.095 -95.625)"/>
    <path id="Path_258" data-name="Path 258" class="cls-2" d="M988.71,579.817c31.332-30.859,50.593-54.491,50.868-54.831l.778.246c-7.149-19.358-22.573-31.663-43.24-36.835Z" transform="translate(-231.016 -86.659)"/>
    <path id="Path_259" data-name="Path 259" class="cls-2" d="M842.528,692.962c-1.244.662-2.49,1.332-3.731,1.976a369.248,369.248,0,0,1-36.585,16.606l91.223,23.183-.736.955a146.384,146.384,0,0,0,33.48-15.62q6.145-3.917,12.055-8.1Z" transform="translate(-190.272 -107.609)"/>
    <path id="Path_260" data-name="Path 260" class="cls-2" d="M942.111,622.386c16.405-13.835,31.312-27.615,44.261-40.273l8.6-93.518,1.106-.458c-15.676-3.71-34.291-3.375-54.553,1.032Z" transform="translate(-231.016 -88.776)"/>
    <path id="Path_261" data-name="Path 261" class="cls-2" d="M798.052,711.306l9.8-135.259c-49.594,62.862-83.032,146.09-85.14,151.4C748.075,726.465,773.467,720.469,798.052,711.306Z" transform="translate(-168.802 -97.339)"/>
    <path id="Path_262" data-name="Path 262" class="cls-2" d="M843.011,690.786l.091.018a501.507,501.507,0,0,0,46.112-28.076l-6.338-151.261q-9.583,5.131-19.252,11.282A179.709,179.709,0,0,0,837.9,542.97Z" transform="translate(-184.992 -93.595)"/>
    <path id="Path_263" data-name="Path 263" class="cls-2" d="M759.07,391.167l-20.857,51.259c3.8,17.923,7.5,38.13,10.419,59.639l37-75.8.588.923c-8.21-14.468-17.579-26.97-27.776-36.878Z" transform="translate(-167.223 -79.768)"/>
    <path id="Path_264" data-name="Path 264" class="cls-2" d="M737.541,439.283l20.2-49.653c-11.509-11.005-24.057-18.706-37.186-22.169-.683-.18-1.363-.338-2.043-.494C720.064,371.7,728.962,399.552,737.541,439.283Z" transform="translate(-162.835 -76.503)"/>
    <path id="Path_265" data-name="Path 265" class="cls-2" d="M820.181,550.319l.45,1.144q-.633-11.654-2.1-23.066l-63.882,78.476-.226-.515q-.264,6.992-.731,13.792Z" transform="translate(-172.153 -89.808)"/>
    <path id="Path_266" data-name="Path 266" class="cls-2" d="M809.2,483.761l.523,1.053A258.754,258.754,0,0,0,786.789,428.2l-37.71,77.24q3.97,30.258,5.163,58.375Z" transform="translate(-170.588 -83.919)"/>
    <path id="Path_267" data-name="Path 267" class="cls-2" d="M633.9,432.012A216.053,216.053,0,0,0,623.67,474.34L752.048,550.8c-1.017-16.245-2.634-31.793-4.539-46.164l-113.762-71.4Z" transform="translate(-155.545 -83.448)"/>
    <path id="Path_268" data-name="Path 268" class="cls-2" d="M621.825,491.166l.128-1.227,130.833,75.435q-.229-5.984-.573-11.865L623.361,476.771l.136-1.225Q622.448,483.167,621.825,491.166Z" transform="translate(-155.485 -85.578)"/>
    <path id="Path_269" data-name="Path 269" class="cls-2" d="M817.85,525.83l.485,1.1a308.983,308.983,0,0,0-8.252-40.827l-55.7,81.141q.689,18.753.12,36.4Z" transform="translate(-171.917 -87.789)"/>
    <path id="Path_270" data-name="Path 270" class="cls-2" d="M746.742,671.551c-5.464,25.984-13.7,49.127-24.647,69.164C737.269,728,797.538,674.1,815.812,606.291Z" transform="translate(-169.721 -107.609)"/>
    <path id="Path_271" data-name="Path 271" class="cls-2" d="M624.847,550.225a298.919,298.919,0,0,0,10.721,38.552l.216-1.329,109.8,81.284a371.612,371.612,0,0,0,6.124-44.116Z" transform="translate(-155.598 -93.059)"/>
    <path id="Path_272" data-name="Path 272" class="cls-2" d="M736.113,439.616c-9.292-42.984-18.942-71.9-19.082-72.318l.624-.525c-20.177-4.324-38.828,2.116-54.26,16.8Z" transform="translate(-156.773 -76.449)"/>
    <path id="Path_273" data-name="Path 273" class="cls-2" d="M753.425,623.658c-.107,1.405-.208,2.816-.328,4.209a369.223,369.223,0,0,1-5.558,39.791l68.415-64.641.413,1.133a146.377,146.377,0,0,0,4.73-36.641q-.019-7.287-.385-14.516Z" transform="translate(-171.859 -93.054)"/>
    <path id="Path_274" data-name="Path 274" class="cls-2" d="M747.122,501.765c-2.9-21.263-6.563-41.231-10.323-58.944l-74.386-57.326.2-1.179c-11.525,11.255-21.207,27.157-28.332,46.631Z" transform="translate(-155.814 -79.51)"/>
    <path id="Path_275" data-name="Path 275" class="cls-2" d="M745.11,671.044l-109-80.689c26.547,75.541,78.945,148.339,82.3,152.961C731.16,721.372,739.688,696.715,745.11,671.044Z" transform="translate(-155.732 -107.609)"/>
    <path id="Path_276" data-name="Path 276" class="cls-2" d="M751.845,622.085l.064-.067a501.517,501.517,0,0,0,.971-53.979L621.725,492.419q-.8,10.841-.777,22.3a179.7,179.7,0,0,0,3.311,32.548Z" transform="translate(-155.463 -88.953)"/>
    <ellipse id="Ellipse_54" data-name="Ellipse 54" class="cls-3" cx="460.992" cy="32" rx="460.992" ry="32" transform="translate(0 675.846)"/>
    <path id="Path_277" data-name="Path 277" class="cls-4" d="M792,774.69c0,62.194-86.691,42.957-192.835,42.957S407.617,836.884,407.617,774.69s86.679-75.721,192.823-75.721S792,712.5,792,774.69Z" transform="translate(-138.959 -107.609)"/>
    <path id="Path_278" data-name="Path 278" class="cls-3" d="M792,759.377c0,62.194-86.691,42.957-192.835,42.957s-191.547,19.237-191.547-42.957,86.679-75.721,192.823-75.721S792,697.183,792,759.377Z" transform="translate(-138.959 -107.609)"/>
    <path id="Path_279" data-name="Path 279" class="cls-5" d="M812.974,500.143s0,104.389,5.578,127.5,25.5,106.78,25.5,106.78l27.093-5.578s-4.781-110.764-9.562-126.7,5.578-81.28,19.125-95.624-6.375-23.109-6.375-23.109Z" transform="translate(-183.376 -107.609)"/>
    <path id="Path_280" data-name="Path 280" class="cls-4" d="M812.974,500.143s0,104.389,5.578,127.5,25.5,106.78,25.5,106.78l27.093-5.578s-4.781-110.764-9.562-126.7,5.578-81.28,19.125-95.624-6.375-23.109-6.375-23.109Z" transform="translate(-183.376 -107.609)"/>
    <path id="Path_281" data-name="Path 281" class="cls-5" d="M878.317,714.5s-35.859,14.344-38.25,14.344-3.984,41.437-3.984,41.437,2.391,24.7-36.656,32.671,31.078,25.5,43.828,16.734,18.328-15.14,18.328-15.14l4.781-7.969-1.594,13.547,5.578.8,12.75-25.5s3.187-19.125-.8-23.906S878.317,714.5,878.317,714.5Z" transform="translate(-182.033 -107.609)"/>
    <path id="Path_282" data-name="Path 282" class="cls-6" d="M651.225,512.144l5.578,31.078,26.3-2.391-4.781-22.312Z" transform="translate(-111.566 -36.919)"/>
    <path id="Path_283" data-name="Path 283" class="cls-5" d="M827.317,433.206l-4.781,7.969S684.679,422.05,684.679,473.05s-6.375,81.28-7.969,83.671,41.437,27.89,51,26.3c0,0,6.375-8.766,5.578-19.922s6.375-52.593,0-54.984c0,0,7.969-3.187,7.172-7.969,0,0,112.358,15.937,126.7,12.75s23.906-13.547,26.3-19.922,7.511-31.242,7.511-31.242l-1.136-42.069-12.75-15.14-19.125-2.391-29.484,18.328Z" transform="translate(-178.415 -83.897)"/>
    <path id="Path_284" data-name="Path 284" class="cls-6" d="M912.582,508.909s-11.156,25.5,1.594,25.5S931.707,512.1,931.707,512.1Z" transform="translate(-193.393 -85.204)"/>
    <path id="Path_285" data-name="Path 285" class="cls-7" d="M827.317,302.521l-3.984-4.781s-44.624-100.4-27.093-127.5,94.03-31.078,96.421-29.484,9.562,7.172,8.766,8.766-16.734,5.578-11.156,15.14c0,0-7.969,2.391-9.562-.8s-6.375-3.984-7.969-.8-27.093,10.359-27.093,12.75-3.984,14.344-7.969,15.937.8,25.5,8.766,31.875,13.547,23.906,13.547,23.906L856,283.4Z" transform="translate(-184.579 -52.545)"/>
    <path id="Path_286" data-name="Path 286" class="cls-5" d="M850.122,168.43c-4.767,2.427-9.507,5.526-12.382,10.409-5.883,9.994-2.125,23.667-5.77,34.909-1.554,4.794-4.385,8.913-6.721,13.295s-4.242,9.391-3.63,14.442c.6,4.955,3.515,9.157,4.892,13.916,2.37,8.189-.005,17.067-2.68,25.138q-2.2,6.629-4.674,13.138c-.958,2.517-2.108,5.214-4.306,6.427l18.858,1.547c5.481.45,11.538.715,15.846-3.089a18.287,18.287,0,0,0,4.126-5.9c4.257-8.889,4.944-19.372,4.455-29.433s-2.063-20.06-1.977-30.135a30.629,30.629,0,0,1,1.321-9.774,55.148,55.148,0,0,1,3.542-7.17c4.3-8.288,6.074-17.855,7.787-27.235,1.175-6.433,3.05-15.751-.311-21.794C865.146,161.094,854.655,166.122,850.122,168.43Z" transform="translate(-181.511 -52.545)"/>
    <circle id="Ellipse_55" data-name="Ellipse 55" class="cls-6" cx="32.671" cy="32.671" r="32.671" transform="translate(649.552 111.762)"/>
    <path id="Path_287" data-name="Path 287" class="cls-6" d="M856,233.99s5.18,20.32,1.992,30.679,43.429-13.945,43.429-13.945-14.344-19.125-14.344-25.5Z" transform="translate(-187.366 -65.172)"/>
    <path id="Path_288" data-name="Path 288" class="cls-7" d="M915.769,265.068S905.41,257.1,905.41,253.115s-7.172-12.75-7.172-12.75S863.973,257.9,862.379,257.9s-2.391-10.359-2.391-10.359l-36.656,50.2s-11.953,28.687-7.969,51,10.359,45.421,7.172,66.14.8,27.89,5.578,25.5,0-10.359,10.359-9.562,45.421-10.359,47.812-15.14,11.953,10.359,12.75,19.125-1.594,32.671,0,31.875,3.984-14.344,4.781-20.718,3.187-27.093,0-30.281-.8-7.969,1.594-9.562,41.437-100.4,41.437-100.4-3.984-20.718-17.531-27.89S915.769,265.068,915.769,265.068Z" transform="translate(-192.056 -70.732)"/>
    <path id="Path_289" data-name="Path 289" class="cls-7" d="M934.1,292.161l12.75,13.547v71.718s16.734,86.061,6.375,90.843-15.14,3.187-15.14,3.187,2.391,43.828-4.781,43.828-18.328-3.187-24.7-1.594c0,0,1.594-15.937,6.375-23.109s4.781-19.922,4.781-19.922-7.172,0-7.172-10.359-.8-16.734-1.594-19.125-6.375-44.624-6.375-44.624Z" transform="translate(-196.728 -75.618)"/>
    <path id="Path_290" data-name="Path 290" class="cls-5" d="M861.78,166.779c5.516-3.506,12.829-.852,19.236-2.144,6.964-1.4,12.768-7.478,19.864-7.132,5.9.288,10.563,4.942,14.385,9.448a66.657,66.657,0,0,1,9.166,13.126c2.618,5.254,4.042,11.007,5.447,16.706L934.59,215.9c1.6,6.481,3.214,13.016,6.115,19.027s7.222,11.538,13.088,14.721a38.508,38.508,0,0,1-22.017.071,45.156,45.156,0,0,0,13.255,18.535c-5.315,1.622-11.042-.013-16.587.339a23.542,23.542,0,0,0-19.075,12.5c-2.9,5.647-3.342,12.192-5.071,18.3-5.162,18.228-23.133,32.012-42.076,32.274,5.311-7.656,10.887-16.542,8.83-25.63-1.243-5.493-5.161-10.1-6.323-15.615-1.242-5.89.811-11.9,2.206-17.755s1.974-12.579-1.656-17.381c-3.849-5.091-11.572-6.773-14.054-12.653a18.044,18.044,0,0,1-.978-6.789l-.159-10.479a22.165,22.165,0,0,1,.552-6.544c.817-2.808,2.7-5.161,4.49-7.47,3.407-4.388,6.721-9.056,8.042-14.452,1.6-6.553-.885-10.618-4.077-15.922C856.335,176.391,856.99,169.824,861.78,166.779Z" transform="translate(-194.441 -52.545)"/>
    <path id="Path_291" data-name="Path 291" class="cls-6" d="M896.645,146.335s36.656,31.875,27.093,43.031-24.7-20.718-24.7-20.718L883.1,156.695Z" transform="translate(-191.632 -52.545)"/>
    <path id="Path_292" data-name="Path 292" class="cls-5" d="M743.647,574.251s-42.234,10.359-47.015,19.125c0,0-5.578,27.093-5.578,38.249s-2.391,31.875-24.7,35.859-38.25,11.156-7.969,16.734,39.046,7.172,47.812-4.781,13.547-15.14,13.547-15.14l6.375,15.937H730.1l15.14-32.671s1.594-15.937-2.391-25.5S743.647,574.251,743.647,574.251Z" transform="translate(-156.198 -94.746)"/>
    <path id="Path_293" data-name="Path 293" class="cls-7" d="M901.027,149.124s-1.218,12.75-18.539,15.14l-3.774-11.953,11.953-10.359Z" transform="translate(-188.229 -52.545)"/>
    <circle id="Ellipse_56" data-name="Ellipse 56" class="cls-2" cx="86" cy="86" r="86" transform="translate(275.025 377.951)"/>
    <path id="Path_294" data-name="Path 294" class="cls-2" d="M431.765,425.424h0a67.422,67.422,0,0,1-83.037-36.5L255.508,179.575A90.274,90.274,0,0,1,309.263,57.269h0a90.274,90.274,0,0,1,116.809,65.873l50.042,223.639a67.422,67.422,0,0,1-44.35,78.643Z" transform="translate(-89.163 -52.545)"/>
    <circle id="Ellipse_57" data-name="Ellipse 57" class="cls-4" cx="86" cy="86" r="86" transform="translate(275.025 377.951)"/>
    <path id="Path_295" data-name="Path 295" class="cls-4" d="M431.765,425.424h0a67.422,67.422,0,0,1-83.037-36.5L255.508,179.575A90.274,90.274,0,0,1,309.263,57.269h0a90.274,90.274,0,0,1,116.809,65.873l50.042,223.639a67.422,67.422,0,0,1-44.35,78.643Z" transform="translate(-89.163 -52.545)"/>
    <circle id="Ellipse_58" data-name="Ellipse 58" class="cls-2" cx="69" cy="69" r="69" transform="translate(288.588 386.737)"/>
    <path id="Path_296" data-name="Path 296" class="cls-2" d="M423.57,400.749h0a61.861,61.861,0,0,1-76.189-33.485L261.85,175.177A82.829,82.829,0,0,1,311.171,62.957h0A82.829,82.829,0,0,1,418.347,123.4l45.915,205.195a61.861,61.861,0,0,1-40.692,72.157Z" transform="translate(-89.705 -52.545)"/>
  </g>
</svg>
