<svg xmlns="http://www.w3.org/2000/svg" viewBox="0 0 75.313 43">
  <defs>
    <style>
      .cls-1 {
        fill: none;
        stroke: #000;
        stroke-width: 3px;
      }
    </style>
  </defs>
  <path id="ic_group_add_24px" class="cls-1" d="M24.1,20.385H15.065V11.154H9.039v9.231H0v6.154H9.039v9.231h6.026V26.538H24.1Zm30.131,3.077a9.1,9.1,0,0,0,9.009-9.231A9.1,9.1,0,0,0,54.235,5a8.837,8.837,0,0,0-2.742.431,15.4,15.4,0,0,1,2.712,8.8,15.709,15.709,0,0,1-2.712,8.8A8.837,8.837,0,0,0,54.235,23.462Zm-15.065,0a9.1,9.1,0,0,0,9.009-9.231,9.026,9.026,0,1,0-18.048,0A9.124,9.124,0,0,0,39.17,23.462Zm19.946,6.646a11.474,11.474,0,0,1,4.158,8.738V45h9.039V38.846C72.313,34.108,65.172,31.185,59.116,30.108ZM39.17,29.615c-6.026,0-18.078,3.077-18.078,9.231V45H57.248V38.846C57.248,32.692,45.2,29.615,39.17,29.615Z" transform="translate(1.5 -3.5)"/>
</svg>
